<?xml version="1.0" standalone="no"?>
<!DOCTYPE svg PUBLIC "-//W3C//DTD SVG 20010904//EN" "http://www.w3.org/TR/2001/REC-SVG-20010904/DTD/svg10.dtd">
<svg version="1.0" xmlns="http://www.w3.org/2000/svg"
    width="512.000000pt" height="512.000000pt" viewBox="0 0 512.000000 512.000000"
    preserveAspectRatio="xMidYMid meet">

    <g transform="translate(0.000000,512.000000) scale(0.100000,-0.100000)"
        fill="#5e6a5b" stroke="none">
        <path
            d="M2366 4657 c-39 -42 -90 -145 -111 -228 -10 -35 -21 -127 -25 -204
-5 -77 -15 -163 -23 -192 l-15 -51 44 -32 c105 -75 245 -231 349 -388 l48 -72
103 108 c57 60 126 126 153 148 28 21 51 46 51 55 0 34 -90 330 -128 423 -76
184 -176 330 -290 423 -68 56 -110 58 -156 10z" />
        <path
            d="M1125 4041 c-170 -31 -365 -99 -412 -143 -28 -27 -31 -86 -5 -116 9
-10 78 -64 152 -119 437 -322 775 -669 1059 -1088 114 -167 231 -369 424 -730
184 -345 252 -464 275 -482 9 -7 41 -20 70 -29 l52 -15 0 -62 c0 -85 -25 -229
-54 -315 -55 -163 -158 -279 -291 -327 -69 -25 -99 -55 -99 -101 0 -28 7 -42
29 -61 39 -34 93 -27 202 27 236 117 370 374 390 747 l6 123 33 22 c63 43 63
43 -6 400 -87 454 -136 694 -171 833 -137 548 -297 866 -560 1120 -171 165
-344 258 -576 311 -110 25 -395 28 -518 5z" />
        <path
            d="M3527 3854 c-156 -28 -328 -100 -457 -192 -89 -63 -220 -191 -285
-278 l-55 -72 45 -106 c100 -240 174 -508 270 -991 53 -261 64 -304 69 -270 4
22 22 101 41 176 177 715 677 1271 1249 1388 52 10 100 22 107 26 6 4 17 22
25 40 21 51 3 90 -55 119 -124 63 -354 135 -516 161 -112 19 -334 18 -438 -1z" />
        <path
            d="M1085 3154 c-224 -48 -457 -165 -607 -306 -42 -39 -48 -50 -48 -84 0
-71 20 -80 231 -115 372 -60 544 -111 804 -238 88 -43 194 -94 237 -114 132
-64 258 -212 397 -466 40 -74 168 -230 140 -171 -25 52 -224 419 -282 520
-134 234 -301 471 -464 661 -113 132 -310 329 -326 328 -6 0 -43 -7 -82 -15z" />
        <path
            d="M3943 3090 c-110 -87 -274 -306 -382 -510 -122 -231 -225 -521 -285
-805 -4 -16 28 35 69 114 100 191 161 276 273 387 245 243 556 379 956 420 54
5 75 12 93 30 52 53 15 134 -104 222 -133 100 -312 166 -483 178 l-85 6 -52
-42z" />
    </g>
</svg>